<svg width="394" height="111" viewBox="0 0 394 111" fill="none" xmlns="http://www.w3.org/2000/svg">
<g clip-path="url(#clip0_98_5)">
<path d="M77.7901 78.346L27.4033 105V47.8845L77.7901 17.423V78.346Z" stroke="white" stroke-width="6" stroke-miterlimit="10"/>
<path d="M52.1193 9.38464L26.9613 48.02" stroke="white" stroke-width="6" stroke-miterlimit="10"/>
<path d="M53.9227 32.6538V6L2.20996 36.4615V93.5769L26.0774 82.1538" stroke="white" stroke-width="6" stroke-miterlimit="10"/>
</g>
<path d="M93.05 81V18H100.61V74.97H129.95V81H93.05ZM147.925 82.08C144.505 82.08 141.505 81.39 138.925 80.01C136.405 78.57 134.425 76.41 132.985 73.53C131.545 70.59 130.825 66.9 130.825 62.46V36.36H138.385V61.65C138.385 66.27 139.375 69.75 141.355 72.09C143.335 74.43 146.185 75.6 149.905 75.6C152.485 75.6 154.765 74.97 156.745 73.71C158.785 72.45 160.375 70.62 161.515 68.22C162.715 65.82 163.315 62.91 163.315 59.49V36.36H170.875V81H164.215L163.495 73.98H163.135C161.635 76.38 159.595 78.33 157.015 79.83C154.495 81.33 151.465 82.08 147.925 82.08ZM195.493 82.08C190.813 82.08 186.793 81.12 183.433 79.2C180.133 77.22 177.583 74.49 175.783 71.01C173.983 67.47 173.083 63.36 173.083 58.68C173.083 54 174.043 49.92 175.963 46.44C177.943 42.9 180.613 40.17 183.973 38.25C187.393 36.27 191.233 35.28 195.493 35.28C200.833 35.28 205.303 36.66 208.903 39.42C212.503 42.18 214.783 45.87 215.743 50.49H208.003C207.403 47.43 205.933 45.12 203.593 43.56C201.253 41.94 198.523 41.13 195.403 41.13C192.883 41.13 190.513 41.79 188.293 43.11C186.073 44.37 184.273 46.29 182.893 48.87C181.513 51.45 180.823 54.72 180.823 58.68C180.823 61.5 181.183 63.99 181.903 66.15C182.683 68.25 183.733 70.02 185.053 71.46C186.373 72.9 187.903 73.98 189.643 74.7C191.443 75.42 193.363 75.78 195.403 75.78C197.503 75.78 199.423 75.45 201.163 74.79C202.903 74.07 204.373 73.05 205.573 71.73C206.773 70.35 207.583 68.73 208.003 66.87H215.743C214.783 71.37 212.503 75.03 208.903 77.85C205.303 80.67 200.833 82.08 195.493 82.08ZM219.56 81V36.36H227.12V81H219.56ZM223.34 27.45C221.84 27.45 220.58 26.94 219.56 25.92C218.54 24.9 218.03 23.64 218.03 22.14C218.03 20.7 218.54 19.47 219.56 18.45C220.58 17.43 221.84 16.92 223.34 16.92C224.78 16.92 226.01 17.43 227.03 18.45C228.05 19.47 228.56 20.73 228.56 22.23C228.56 23.67 228.05 24.9 227.03 25.92C226.01 26.94 224.78 27.45 223.34 27.45ZM251.894 82.08C247.574 82.08 243.824 81.06 240.644 79.02C237.524 76.92 235.094 74.1 233.354 70.56C231.674 67.02 230.834 63.06 230.834 58.68C230.834 54.3 231.674 50.34 233.354 46.8C235.094 43.26 237.614 40.47 240.914 38.43C244.214 36.33 248.204 35.28 252.884 35.28C257.024 35.28 260.414 36.15 263.054 37.89C265.754 39.63 267.824 41.58 269.264 43.74V18H276.824V81H270.524L269.804 72.45H269.444C268.184 74.61 266.624 76.41 264.764 77.85C262.964 79.23 260.984 80.28 258.824 81C256.664 81.72 254.354 82.08 251.894 82.08ZM253.694 75.51C256.814 75.51 259.514 74.82 261.794 73.44C264.134 72 265.934 70.02 267.194 67.5C268.454 64.98 269.084 62.04 269.084 58.68C269.084 55.32 268.454 52.38 267.194 49.86C265.934 47.34 264.134 45.39 261.794 44.01C259.514 42.57 256.814 41.85 253.694 41.85C250.574 41.85 247.874 42.57 245.594 44.01C243.314 45.39 241.544 47.34 240.284 49.86C239.084 52.38 238.484 55.32 238.484 58.68C238.484 62.04 239.084 64.98 240.284 67.5C241.544 70.02 243.314 72 245.594 73.44C247.874 74.82 250.574 75.51 253.694 75.51ZM301.489 82.08C297.229 82.08 293.449 81.12 290.149 79.2C286.849 77.22 284.239 74.49 282.319 71.01C280.459 67.47 279.529 63.36 279.529 58.68C279.529 53.94 280.459 49.83 282.319 46.35C284.179 42.87 286.759 40.17 290.059 38.25C293.419 36.27 297.289 35.28 301.669 35.28C306.049 35.28 309.799 36.27 312.919 38.25C316.039 40.17 318.439 42.72 320.119 45.9C321.799 49.02 322.639 52.44 322.639 56.16C322.639 56.76 322.639 57.42 322.639 58.14C322.639 58.8 322.609 59.55 322.549 60.39H285.199V54.54H315.169C314.989 50.28 313.609 46.98 311.029 44.64C308.509 42.3 305.329 41.13 301.489 41.13C298.909 41.13 296.509 41.7 294.289 42.84C292.069 43.98 290.269 45.69 288.889 47.97C287.569 50.25 286.909 53.13 286.909 56.61V59.13C286.909 62.85 287.599 65.94 288.979 68.4C290.359 70.86 292.159 72.72 294.379 73.98C296.659 75.18 299.029 75.78 301.489 75.78C304.609 75.78 307.219 75.06 309.319 73.62C311.419 72.18 312.949 70.2 313.909 67.68H321.379C320.599 70.44 319.309 72.9 317.509 75.06C315.709 77.22 313.459 78.93 310.759 80.19C308.119 81.45 305.029 82.08 301.489 82.08ZM324.477 81V36.36H331.137L331.857 43.38H332.217C333.777 40.92 335.817 38.97 338.337 37.53C340.857 36.03 343.887 35.28 347.427 35.28C350.847 35.28 353.847 36 356.427 37.44C359.007 38.82 360.987 40.98 362.367 43.92C363.807 46.8 364.527 50.46 364.527 54.9V81H356.967V55.71C356.967 51.09 355.977 47.61 353.997 45.27C352.017 42.93 349.167 41.76 345.447 41.76C342.867 41.76 340.557 42.39 338.517 43.65C336.537 44.91 334.947 46.74 333.747 49.14C332.607 51.48 332.037 54.39 332.037 57.87V81H324.477ZM385.364 81C382.664 81 380.324 80.58 378.344 79.74C376.364 78.9 374.834 77.49 373.754 75.51C372.734 73.47 372.224 70.74 372.224 67.32V41.76H364.484V36.36H372.224L373.124 25.65H379.784V36.36H392.924V41.76H379.784V67.32C379.784 70.44 380.354 72.54 381.494 73.62C382.634 74.64 384.644 75.15 387.524 75.15H392.204V81H385.364Z" fill="white"/>
<defs>
<clipPath id="clip0_98_5">
<rect width="80" height="111" fill="white"/>
</clipPath>
</defs>
</svg>
