<svg width="329" height="111" viewBox="0 0 329 111" fill="none" xmlns="http://www.w3.org/2000/svg">
<g clip-path="url(#clip0_74_22)">
<path d="M77.7901 79.4686L27.4033 107.283V47.6811L77.7901 15.8937V79.4686Z" stroke="#1A1A1A" stroke-width="5" stroke-miterlimit="10"/>
<path d="M52.1193 7.50537L26.9613 47.8224" stroke="#1A1A1A" stroke-width="5" stroke-miterlimit="10"/>
<path d="M53.9227 31.7874V3.97339L2.20996 35.7608V95.3623L26.0774 83.442" stroke="#1A1A1A" stroke-width="5" stroke-miterlimit="10"/>
</g>
<path d="M95.15 79V30H101.03V74.31H123.85V79H95.15ZM137.831 79.84C135.171 79.84 132.838 79.3033 130.831 78.23C128.871 77.11 127.331 75.43 126.211 73.19C125.091 70.9033 124.531 68.0333 124.531 64.58V44.28H130.411V63.95C130.411 67.5433 131.181 70.25 132.721 72.07C134.261 73.89 136.478 74.8 139.371 74.8C141.378 74.8 143.151 74.31 144.691 73.33C146.278 72.35 147.514 70.9267 148.401 69.06C149.334 67.1933 149.801 64.93 149.801 62.27V44.28H155.681V79H150.501L149.941 73.54H149.661C148.494 75.4067 146.908 76.9233 144.901 78.09C142.941 79.2567 140.584 79.84 137.831 79.84ZM174.828 79.84C171.188 79.84 168.061 79.0933 165.448 77.6C162.881 76.06 160.898 73.9367 159.498 71.23C158.098 68.4767 157.398 65.28 157.398 61.64C157.398 58 158.145 54.8267 159.638 52.12C161.178 49.3667 163.255 47.2433 165.868 45.75C168.528 44.21 171.515 43.44 174.828 43.44C178.981 43.44 182.458 44.5133 185.258 46.66C188.058 48.8067 189.831 51.6767 190.578 55.27H184.558C184.091 52.89 182.948 51.0933 181.128 49.88C179.308 48.62 177.185 47.99 174.758 47.99C172.798 47.99 170.955 48.5033 169.228 49.53C167.501 50.51 166.101 52.0033 165.028 54.01C163.955 56.0167 163.418 58.56 163.418 61.64C163.418 63.8333 163.698 65.77 164.258 67.45C164.865 69.0833 165.681 70.46 166.708 71.58C167.735 72.7 168.925 73.54 170.278 74.1C171.678 74.66 173.171 74.94 174.758 74.94C176.391 74.94 177.885 74.6833 179.238 74.17C180.591 73.61 181.735 72.8167 182.668 71.79C183.601 70.7167 184.231 69.4567 184.558 68.01H190.578C189.831 71.51 188.058 74.3567 185.258 76.55C182.458 78.7433 178.981 79.84 174.828 79.84ZM193.547 79V44.28H199.427V79H193.547ZM196.487 37.35C195.32 37.35 194.34 36.9533 193.547 36.16C192.754 35.3667 192.357 34.3867 192.357 33.22C192.357 32.1 192.754 31.1433 193.547 30.35C194.34 29.5567 195.32 29.16 196.487 29.16C197.607 29.16 198.564 29.5567 199.357 30.35C200.15 31.1433 200.547 32.1233 200.547 33.29C200.547 34.41 200.15 35.3667 199.357 36.16C198.564 36.9533 197.607 37.35 196.487 37.35ZM218.696 79.84C215.336 79.84 212.419 79.0467 209.946 77.46C207.519 75.8267 205.629 73.6333 204.276 70.88C202.969 68.1267 202.316 65.0467 202.316 61.64C202.316 58.2333 202.969 55.1533 204.276 52.4C205.629 49.6467 207.589 47.4767 210.156 45.89C212.722 44.2567 215.826 43.44 219.466 43.44C222.686 43.44 225.322 44.1167 227.376 45.47C229.476 46.8233 231.086 48.34 232.206 50.02V30H238.086V79H233.186L232.626 72.35H232.346C231.366 74.03 230.152 75.43 228.706 76.55C227.306 77.6233 225.766 78.44 224.086 79C222.406 79.56 220.609 79.84 218.696 79.84ZM220.096 74.73C222.522 74.73 224.622 74.1933 226.396 73.12C228.216 72 229.616 70.46 230.596 68.5C231.576 66.54 232.066 64.2533 232.066 61.64C232.066 59.0267 231.576 56.74 230.596 54.78C229.616 52.82 228.216 51.3033 226.396 50.23C224.622 49.11 222.522 48.55 220.096 48.55C217.669 48.55 215.569 49.11 213.796 50.23C212.022 51.3033 210.646 52.82 209.666 54.78C208.732 56.74 208.266 59.0267 208.266 61.64C208.266 64.2533 208.732 66.54 209.666 68.5C210.646 70.46 212.022 72 213.796 73.12C215.569 74.1933 217.669 74.73 220.096 74.73ZM257.269 79.84C253.956 79.84 251.016 79.0933 248.449 77.6C245.883 76.06 243.853 73.9367 242.359 71.23C240.913 68.4767 240.189 65.28 240.189 61.64C240.189 57.9533 240.913 54.7567 242.359 52.05C243.806 49.3433 245.813 47.2433 248.379 45.75C250.993 44.21 254.003 43.44 257.409 43.44C260.816 43.44 263.733 44.21 266.159 45.75C268.586 47.2433 270.453 49.2267 271.759 51.7C273.066 54.1267 273.719 56.7867 273.719 59.68C273.719 60.1467 273.719 60.66 273.719 61.22C273.719 61.7333 273.696 62.3167 273.649 62.97H244.599V58.42H267.909C267.769 55.1067 266.696 52.54 264.689 50.72C262.729 48.9 260.256 47.99 257.269 47.99C255.263 47.99 253.396 48.4333 251.669 49.32C249.943 50.2067 248.543 51.5367 247.469 53.31C246.443 55.0833 245.929 57.3233 245.929 60.03V61.99C245.929 64.8833 246.466 67.2867 247.539 69.2C248.613 71.1133 250.013 72.56 251.739 73.54C253.513 74.4733 255.356 74.94 257.269 74.94C259.696 74.94 261.726 74.38 263.359 73.26C264.993 72.14 266.183 70.6 266.929 68.64H272.739C272.133 70.7867 271.129 72.7 269.729 74.38C268.329 76.06 266.579 77.39 264.479 78.37C262.426 79.35 260.023 79.84 257.269 79.84ZM275.148 79V44.28H280.328L280.888 49.74H281.168C282.382 47.8267 283.968 46.31 285.928 45.19C287.888 44.0233 290.245 43.44 292.998 43.44C295.658 43.44 297.992 44 299.998 45.12C302.005 46.1933 303.545 47.8733 304.618 50.16C305.738 52.4 306.298 55.2467 306.298 58.7V79H300.418V59.33C300.418 55.7367 299.648 53.03 298.108 51.21C296.568 49.39 294.352 48.48 291.458 48.48C289.452 48.48 287.655 48.97 286.068 49.95C284.528 50.93 283.292 52.3533 282.358 54.22C281.472 56.04 281.028 58.3033 281.028 61.01V79H275.148ZM322.506 79C320.406 79 318.586 78.6733 317.046 78.02C315.506 77.3667 314.316 76.27 313.476 74.73C312.682 73.1433 312.286 71.02 312.286 68.36V48.48H306.266V44.28H312.286L312.986 35.95H318.166V44.28H328.386V48.48H318.166V68.36C318.166 70.7867 318.609 72.42 319.496 73.26C320.382 74.0533 321.946 74.45 324.186 74.45H327.826V79H322.506Z" fill="#1A1A1A"/>
<defs>
<clipPath id="clip0_74_22">
<rect width="80" height="111" fill="white"/>
</clipPath>
</defs>
</svg>
